# Made in Blockbench 4.11.2
mtllib materials.mtl

o mesh
o name0
v -0.2729296 3.4792 3.128633
v -0.6932941 3.4792 3.015997
v -0.6932941 0.003000259 3.015997
v -0.2729298 0.003000259 3.128633
v 0.21760000000000002 3.4792 1.3929
v -0.2176 3.4792 1.3929
v 0.2176 0.003000259 1.3929
v -0.2176 0.003000379 1.3929
v -0.2729298 0.003000259 -3.128633
v -0.6932941 0.003000259 -3.015997
v -0.6932941 3.4792 -3.015997
v -0.2729296 3.4792 -3.128633
v -0.2176 3.4792 -1.3993
v 0.2176 3.4792 -1.3993
v -0.2176 0.003000379 -1.3993
v 0.2176 0.003000259 -1.3993
v -0.2176 3.4792 -1.3993
v 0.2176 0.003 -1.3993
vt 0.046875 0.984375
vt 0.015625 0.984375
vt 0.015625 0.953125
vt 0.046875 0.953125
vt 0.109375 0.984375
vt 0.078125 0.984375
vt 0.078125 0.953125
vt 0.109375 0.953125
vt 0.171875 0.984375
vt 0.140625 0.984375
vt 0.140625 0.953125
vt 0.171875 0.953125
vt 0.234375 0.984375
vt 0.203125 0.984375
vt 0.203125 0.953125
vt 0.234375 0.953125
vt 0.296875 0.984375
vt 0.265625 0.984375
vt 0.265625 0.953125
vt 0.296875 0.953125
vt 0.359375 0.984375
vt 0.328125 0.984375
vt 0.328125 0.953125
vt 0.359375 0.953125
vt 0.421875 0.984375
vt 0.390625 0.984375
vt 0.390625 0.953125
vt 0.421875 0.953125
vt 0.484375 0.984375
vt 0.453125 0.984375
vt 0.453125 0.953125
vt 0.484375 0.953125
vt 0.546875 0.984375
vt 0.515625 0.984375
vt 0.515625 0.953125
vt 0.546875 0.953125
vt 0.609375 0.984375
vt 0.578125 0.984375
vt 0.578125 0.953125
vt 0.609375 0.953125
vt 0.671875 0.984375
vt 0.640625 0.984375
vt 0.640625 0.953125
vt 0.671875 0.953125
vt 0.734375 0.984375
vt 0.703125 0.984375
vt 0.703125 0.953125
vt 0.734375 0.953125
vt 0.796875 0.984375
vt 0.765625 0.984375
vt 0.765625 0.953125
vt 0.796875 0.953125
vt 0.859375 0.984375
vt 0.828125 0.984375
vt 0.828125 0.953125
vt 0.859375 0.953125
vt 0.921875 0.984375
vt 0.890625 0.984375
vt 0.890625 0.953125
vt 0.921875 0.953125
vt 0.984375 0.984375
vt 0.953125 0.984375
vt 0.953125 0.953125
vt 0.984375 0.953125
vt 0.046875 0.921875
vt 0.015625 0.921875
vt 0.015625 0.890625
vt 0.046875 0.890625
vt 0.109375 0.921875
vt 0.078125 0.921875
vt 0.078125 0.890625
vt 0.109375 0.890625
vn -0.2588183412550131 0 0.9659260148841647
vn 0 1 0
vn 0 0 -1
vn 1.836775175070313e-8 -0.9999999999999977 -6.854954994191985e-8
vn 0.9623099311184249 -5.536562930076867e-8 0.27195513687159745
vn -0.9596351228790753 0 -0.28124798832500525
vn 0 0 1
vn 0 1 0
vn 0 0 -1
vn -2.7573529411799204e-7 -0.999999999999962 0
vn 1 -7.984459376216526e-18 -9.940396682053188e-18
vn -1 0 0
vn -0.25881845614625515 0 -0.9659259840992317
vn 0 1 0
vn 0 0 1
vn -2.7573529411798876e-7 -0.9999999999999499 1.5535728251728103e-7
vn 0.9620461259933916 -5.535045151293959e-8 -0.27288688400343547
vn -0.9593341753644121 0 0.28227281126223164
usemtl m_9eff80b9-9660-c09a-153c-2b28c252d8f2
f 1/1/1 2/2/1 3/3/1 4/4/1
f 5/5/2 6/6/2 2/7/2 1/8/2
f 7/9/3 8/10/3 6/11/3 5/12/3
f 4/13/4 3/14/4 8/15/4 7/16/4
f 5/17/5 1/18/5 4/19/5 7/20/5
f 2/21/6 6/22/6 8/23/6 3/24/6
f 5/25/7 6/26/7 8/27/7 7/28/7
f 14/29/8 17/30/8 6/31/8 5/32/8
f 18/33/9 15/34/9 17/35/9 14/36/9
f 7/37/10 8/38/10 15/39/10 18/40/10
f 14/41/11 5/42/11 7/43/11 18/44/11
f 6/45/12 17/46/12 15/47/12 8/48/12
f 9/49/13 10/50/13 11/51/13 12/52/13
f 12/53/14 11/54/14 13/55/14 14/56/14
f 14/57/15 13/58/15 15/59/15 16/60/15
f 16/61/16 15/62/16 10/63/16 9/64/16
f 16/65/17 9/66/17 12/67/17 14/68/17
f 10/69/18 15/70/18 13/71/18 11/72/18